<svg xmlns="http://www.w3.org/2000/svg" xmlns:xlink="http://www.w3.org/1999/xlink" width="34" height="34" viewBox="0 0 34 34">
  <defs>
    <filter id="Unión_10" x="1.912" y="3" width="30.121" height="28.204" filterUnits="userSpaceOnUse">
      <feOffset input="SourceAlpha"/>
      <feGaussianBlur stdDeviation="0.5" result="blur"/>
      <feFlood flood-color="#ff5858"/>
      <feComposite operator="in" in2="blur"/>
      <feComposite in="SourceGraphic"/>
    </filter>
  </defs>
  <g id="Rabbit_icon_ON" transform="translate(-92 0.495)">
    <rect id="Rectángulo_64" data-name="Rectángulo 64" width="34" height="34" transform="translate(92 -0.495)" fill="none"/>
    <g id="Rabbit_icon" transform="translate(96 4.506)">
      <g transform="matrix(1, 0, 0, 1, -4, -5)" filter="url(#Unión_10)">
        <path id="Unión_10-2" data-name="Unión 10" d="M3.337,24.2l-1.472-.63a6.733,6.733,0,0,1-1.4-7.115l.23-.581,2.71-.507a14.181,14.181,0,0,1,2.581-5.218A12.335,12.335,0,0,1,9.165,7.32c-4.226-.131-6.912-.891-8.2-2.314A2.9,2.9,0,0,1,.139,2.772L1.764.977A51.7,51.7,0,0,1,10.506,0H10.6c2.291.008,4.838.221,6.662.4A6.011,6.011,0,0,1,19.429,0a6.412,6.412,0,0,1,4.245,1.631,7.194,7.194,0,0,1,2.249,3.954c.453,2.224-.868,4.167-2.761,5.312a8.84,8.84,0,0,1,.028,3.909,12.572,12.572,0,0,0,.254,6.138l.013.041a2.229,2.229,0,0,1-2.131,2.879,2.175,2.175,0,0,1-.773-.143,2.222,2.222,0,0,1-1.378.482Zm-.973-6.993a4.676,4.676,0,0,0,.973,4.952H19.175a.188.188,0,0,0,.123-.331c-.663-.577-2-1.722-2.286-1.893.151-3.7-1.357-4.923-4-5.549a.118.118,0,0,1,.025-.233h0c2.089.025,5.219.957,5.14,5.2l3.022,2.429a.193.193,0,0,0,.119.041.188.188,0,0,0,.18-.245l-.012-.041a14.537,14.537,0,0,1-.3-7.136,5.817,5.817,0,0,0-.726-4.584c1.918-.442,3.828-2.016,3.461-3.827a4.719,4.719,0,0,0-4.5-3.95,3.944,3.944,0,0,0-1.611.343.991.991,0,0,1-.393.086c-.028,0-.061,0-.094,0-1.648-.176-4.354-.417-6.739-.425h-.086a50.27,50.27,0,0,0-8.338.936S1.935,5.3,10.515,5.3a17.2,17.2,0,0,0,4.935-.63.255.255,0,0,1,.046-.008.157.157,0,0,1,.151.2,3.823,3.823,0,0,0-.168,1.133v.02A1.694,1.694,0,0,1,14.01,7.716c-5.151.654-8.959,5.422-9.085,11.434L2.594,16.631ZM18.946,6.49l-1.3-.761,1.3-.761.761-1.3.765,1.3,1.3.761-1.3.761-.765,1.3Z" transform="translate(4 5)" fill="#ff8a8a" stroke="rgba(0,0,0,0)" stroke-width="1"/>
      </g>
    </g>
  </g>
</svg>
